<svg width="37" height="18" viewBox="0 0 37 18" fill="none" xmlns="http://www.w3.org/2000/svg">
<mask id="path-1-inside-1_1_717" fill="white">
<path fill-rule="evenodd" clip-rule="evenodd" d="M0 1C0 0.447715 0.447715 0 1 0H36C36.5523 0 37 0.447715 37 1V3C37 3.55228 36.5523 4 36 4H0.999999C0.447715 4 0 3.55228 0 3V1ZM0 8C0 7.44772 0.447715 7 1 7H36C36.5523 7 37 7.44772 37 8V10C37 10.5523 36.5523 11 36 11H0.999999C0.447715 11 0 10.5523 0 10V8ZM1 14C0.447715 14 0 14.4477 0 15V17C0 17.5523 0.447715 18 0.999999 18H36C36.5523 18 37 17.5523 37 17V15C37 14.4477 36.5523 14 36 14H1Z"/>
</mask>
<path fill-rule="evenodd" clip-rule="evenodd" d="M0 1C0 0.447715 0.447715 0 1 0H36C36.5523 0 37 0.447715 37 1V3C37 3.55228 36.5523 4 36 4H0.999999C0.447715 4 0 3.55228 0 3V1ZM0 8C0 7.44772 0.447715 7 1 7H36C36.5523 7 37 7.44772 37 8V10C37 10.5523 36.5523 11 36 11H0.999999C0.447715 11 0 10.5523 0 10V8ZM1 14C0.447715 14 0 14.4477 0 15V17C0 17.5523 0.447715 18 0.999999 18H36C36.5523 18 37 17.5523 37 17V15C37 14.4477 36.5523 14 36 14H1Z" fill="#2B2B2B"/>
<path d="M1 -10C-5.07513 -10 -10 -5.07513 -10 1H10C10 5.97056 5.97056 10 1 10V-10ZM36 -10H1V10H36V-10ZM47 1C47 -5.07514 42.0751 -10 36 -10V10C31.0294 10 27 5.97057 27 1H47ZM47 3V1H27V3H47ZM36 14C42.0751 14 47 9.07514 47 3H27C27 -1.97057 31.0294 -6 36 -6V14ZM0.999999 14H36V-6H0.999999V14ZM-10 3C-10 9.07512 -5.07514 14 0.999999 14V-6C5.97057 -6 10 -1.97055 10 3H-10ZM-10 1V3H10V1H-10ZM1 -3C-5.07513 -3 -10 1.92487 -10 8H10C10 12.9706 5.97056 17 1 17V-3ZM36 -3H1V17H36V-3ZM47 8C47 1.92486 42.0751 -3 36 -3V17C31.0294 17 27 12.9706 27 8H47ZM47 10V8H27V10H47ZM36 21C42.0751 21 47 16.0751 47 10H27C27 5.02943 31.0294 1 36 1V21ZM0.999999 21H36V1H0.999999V21ZM-10 10C-10 16.0751 -5.07514 21 0.999999 21V1C5.97057 1 10 5.02944 10 10H-10ZM-10 8V10H10V8H-10ZM10 15C10 19.9706 5.97056 24 1 24V4C-5.07513 4 -10 8.92486 -10 15H10ZM10 17V15H-10V17H10ZM0.999999 8C5.97057 8 10 12.0294 10 17H-10C-10 23.0751 -5.07514 28 0.999999 28V8ZM36 8H0.999999V28H36V8ZM27 17C27 12.0294 31.0294 8 36 8V28C42.0751 28 47 23.0751 47 17H27ZM27 15V17H47V15H27ZM36 24C31.0294 24 27 19.9706 27 15H47C47 8.92486 42.0751 4 36 4V24ZM1 24H36V4H1V24Z" fill="#2B2B2B" mask="url(#path-1-inside-1_1_717)"/>
</svg>
